<?xml version="1.0" encoding="UTF-8"?>
<svg width="200" height="200" version="1.1" viewBox="0 0 200 200" xmlns="http://www.w3.org/2000/svg">
 <g>
  <circle cx="100" cy="100" r="90" fill="#e84c3d"/>
  <g transform="translate(40,40)">
   <path d="m60 20c-16.569 0-30 13.431-30 30 0 2.7614 2.2386 5 5 5h50c2.7614 0 5-2.2386 5-5 0-16.569-13.431-30-30-30z" fill="#fff"/>
   <path d="m35 65h50v10c0 2.7614-2.2386 5-5 5h-40c-2.7614 0-5-2.2386-5-5z" fill="#fff"/>
   <g transform="translate(20,0)" fill="#ffd700">
    <rect x="0" y="85" width="10" height="30" rx="2"/>
    <rect x="40" y="85" width="10" height="30" rx="2"/>
   </g>
  </g>
 </g>
 <text x="100" y="180" text-anchor="middle" fill="#4a4a4a" font-family="serif" font-size="24">Master Chef</text>
 <text x="100" y="195" text-anchor="middle" fill="#e84c3d" font-family="sans-serif" font-size="14">Food &amp; Drinks</text>
</svg> 